<svg width="64" height="64" viewBox="0 0 64 64" fill="none" xmlns="http://www.w3.org/2000/svg">
  <defs>
    <linearGradient id="lamisGrad" x1="10" y1="8" x2="54" y2="56" gradientUnits="userSpaceOnUse">
      <stop stop-color="#F8D3E2"/>
      <stop offset="1" stop-color="#B53B7B"/>
    </linearGradient>
  </defs>
  <rect x="4" y="4" width="56" height="56" rx="18" fill="url(#lamisGrad)"/>
  <path d="M31.9999 45.3333C31.7732 45.3333 31.5466 45.2667 31.3599 45.1333C28.3466 42.9467 26.1199 41.0667 24.1332 39.2667C21.4799 36.84 19.3333 34.52 19.3333 31.2667C19.3333 28.1867 21.7999 25.6667 24.8399 25.6667C27.0266 25.6667 29.0266 26.6933 31.9999 29.7467C34.9733 26.6933 36.9733 25.6667 39.1599 25.6667C42.1999 25.6667 44.6666 28.1867 44.6666 31.2667C44.6666 34.52 42.5199 36.84 39.8666 39.2667C37.8799 41.0667 35.6533 42.9467 32.6399 45.1333C32.4533 45.2667 32.2266 45.3333 31.9999 45.3333Z" fill="white"/>
  <circle cx="46.5" cy="17.5" r="4.5" fill="#FFF5FA"/>
</svg>
